<?xml version="1.0" encoding="UTF-8" standalone="no"?>
<!-- Created with Inkscape (http://www.inkscape.org/) -->

<svg
   width="210mm"
   height="297mm"
   viewBox="0 0 793.70081 1122.5197"
   version="1.1"
   id="svg5"
   inkscape:version="1.2.2 (732a01da63, 2022-12-09)"
   sodipodi:docname="UPO2.svg"
   xmlns:inkscape="http://www.inkscape.org/namespaces/inkscape"
   xmlns:sodipodi="http://sodipodi.sourceforge.net/DTD/sodipodi-0.dtd"
   xmlns:xlink="http://www.w3.org/1999/xlink"
   xmlns="http://www.w3.org/2000/svg"
   xmlns:svg="http://www.w3.org/2000/svg"
   xmlns:rdf="http://www.w3.org/1999/02/22-rdf-syntax-ns#"
   xmlns:cc="http://creativecommons.org/ns#"
   xmlns:dc="http://purl.org/dc/elements/1.1/">
  <title
     id="title7333">Umetnost</title>
  <sodipodi:namedview
     id="namedview7"
     pagecolor="#505050"
     bordercolor="#eeeeee"
     borderopacity="1"
     inkscape:showpageshadow="0"
     inkscape:pageopacity="0"
     inkscape:pagecheckerboard="0"
     inkscape:deskcolor="#505050"
     inkscape:document-units="mm"
     showgrid="false"
     showguides="false"
     inkscape:zoom="1.8434504"
     inkscape:cx="-678.61876"
     inkscape:cy="1488.5131"
     inkscape:window-width="1920"
     inkscape:window-height="1017"
     inkscape:window-x="-8"
     inkscape:window-y="-8"
     inkscape:window-maximized="1"
     inkscape:current-layer="layer1">
    <sodipodi:guide
       position="-1400.8264,-305.92436"
       orientation="0,-1"
       id="guide2722"
       inkscape:locked="false" />
  </sodipodi:namedview>
  <defs
     id="defs2">
    <linearGradient
       inkscape:collect="always"
       id="linearGradient9246">
      <stop
         style="stop-color:#000000;stop-opacity:1;"
         offset="0"
         id="stop9242" />
      <stop
         style="stop-color:#de0b36;stop-opacity:0.98431373;"
         offset="0.5"
         id="stop9254" />
      <stop
         style="stop-color:#fff1f4;stop-opacity:0;"
         offset="1"
         id="stop9244" />
    </linearGradient>
    <linearGradient
       inkscape:collect="always"
       id="linearGradient6962">
      <stop
         style="stop-color:#000000;stop-opacity:1;"
         offset="0"
         id="stop6958" />
      <stop
         style="stop-color:#de0b36;stop-opacity:0.98431373;"
         offset="0.5"
         id="stop6966" />
      <stop
         style="stop-color:#fff1f4;stop-opacity:0;"
         offset="1"
         id="stop6960" />
    </linearGradient>
    <linearGradient
       id="linearGradient5477">
      <stop
         style="stop-color:#e00b35;stop-opacity:1;"
         offset="0"
         id="stop6941" />
      <stop
         style="stop-color:#e00b35;stop-opacity:0;"
         offset="1"
         id="stop6943" />
    </linearGradient>
    <linearGradient
       id="linearGradient5477-1">
      <stop
         style="stop-color:#000000;stop-opacity:1;"
         offset="0"
         id="stop5473" />
      <stop
         style="stop-color:#de0b36;stop-opacity:0.98351645;"
         offset="0.5"
         id="stop6946" />
      <stop
         style="stop-color:#fff1f4;stop-opacity:0;"
         offset="1"
         id="stop5475" />
    </linearGradient>
    <rect
       x="-659.83236"
       y="229.33198"
       width="356.73863"
       height="366.12649"
       id="rect649" />
    <linearGradient
       inkscape:collect="always"
       xlink:href="#linearGradient5477-1"
       id="linearGradient5479"
       x1="-400.45532"
       y1="710.8349"
       x2="110.15058"
       y2="710.8349"
       gradientUnits="userSpaceOnUse"
       spreadMethod="repeat" />
    <linearGradient
       inkscape:collect="always"
       xlink:href="#linearGradient6962"
       id="linearGradient6964"
       x1="-970.93694"
       y1="581.82747"
       x2="-6.3387247"
       y2="581.82747"
       gradientUnits="userSpaceOnUse" />
    <linearGradient
       inkscape:collect="always"
       xlink:href="#linearGradient9246"
       id="linearGradient9248"
       x1="-866.90039"
       y1="1367.8642"
       x2="-735.02344"
       y2="1367.8642"
       gradientUnits="userSpaceOnUse" />
  </defs>
  <g
     inkscape:label="Plast 1"
     inkscape:groupmode="layer"
     id="layer1">
    <path
       style="fill:#c87137"
       id="path534"
       d="m 220.49069,273.25979 c 3.2096,7.7062 6.66035,15.3075 10.11905,22.90436 2.61383,6.21208 5.8844,12.0861 10.2182,17.24997 3.23561,3.30989 7.17786,5.83091 11.16622,8.13482 18.32538,10.58583 11.48448,7.41399 23.68813,12.52946 5.44167,1.99661 9.04877,3.58289 14.88496,4.5708 3.92272,0.66401 7.89907,0.9734 11.86289,1.31515 11.91099,1.02696 20.06256,1.38066 32.36202,0.58703 7.8706,-0.50786 15.69461,-1.57996 23.54192,-2.36994 24.61683,-2.48449 48.96705,-7.15856 72.50169,-14.86253 11.8595,-3.88216 23.70354,-8.47967 34.29666,-15.21353 4.14845,-2.63709 7.76262,-6.03299 11.64393,-9.04949 2.81061,-2.97053 5.8836,-5.71315 8.43183,-8.91159 5.51674,-6.9244 9.81966,-15.31806 9.77194,-24.34567 -0.0109,-2.06434 -0.18946,-4.18368 -0.87454,-6.13106 -0.63761,-1.81244 -2.00756,-3.27654 -3.01134,-4.91482 -6.62326,-3.30488 -12.88737,-7.45783 -19.86976,-9.91466 -4.63253,-1.63 -19.52574,0.0884 -23.11703,0.7639 -7.48603,1.408 -22.51211,5.95117 -29.41522,9.24674 -4.39638,2.09885 -8.34108,5.03587 -12.51161,7.5538 -7.99348,8.15227 -12.26841,11.27802 -17.60114,21.45708 -5.39046,10.28927 -7.11489,19.47322 -8.99233,30.96683 -2.16152,13.23274 -3.1689,28.56959 -4.29231,41.78706 -2.03307,20.15619 -3.30187,35.4683 -6.44843,55.53459 -1.45504,9.27908 -2.77654,18.60928 -5.06862,27.71778 -2.28862,9.0948 -5.2283,18.04003 -8.64383,26.77429 -3.17831,8.12763 -6.30542,16.41926 -11.09881,23.71197 -4.80219,7.30611 -11.59451,13.08925 -17.39176,19.63388 -7.30337,4.54393 -14.19886,9.82085 -21.9101,13.6318 -14.69008,7.25995 -28.32662,10.7493 -44.64967,11.10178 -11.39176,0.246 -26.5856,-2.48831 -37.46955,-6.23414 -4.93369,-1.69798 -9.50373,-4.3101 -14.25561,-6.46515 5.75686,-3.24848 -13.08016,-7.60905 -2.52408,-12.69394 12.23901,-5.89556 51.12911,-7.68431 57.03436,-8.03624 20.11521,-1.19879 40.27141,-1.56515 60.40711,-2.34772 70.09873,-1.37321 140.22314,-0.84214 210.31702,0.51816 95.98148,1.86269 8.87249,0.47956 88.12886,2.53928 8.39873,0.21827 16.80144,0.2389 25.20215,0.35834 0,0 -10.22964,-7.43225 -10.22964,-7.43225 v 0 c -8.05608,0.11959 -16.11131,0.38071 -24.16825,0.35875 -12.24061,-0.0334 -24.47844,-0.37822 -36.71821,-0.52469 -16.45472,-0.19692 -32.90967,-0.3813 -49.3651,-0.50548 -70.14613,-0.52938 -140.29595,-0.64906 -210.44372,-0.56728 -21.52663,0.40363 -77.59658,0.569 -103.3599,3.7045 -0.25159,0.0306 -24.75234,0.71148 -22.31133,11.64271 2.59847,11.63638 29.05488,12.60547 28.65747,21.40478 4.74205,2.04746 9.31388,4.54593 14.22615,6.14239 10.97578,3.56707 25.97559,6.00775 37.396,5.57438 16.3813,-0.62163 29.97602,-4.3199 44.64877,-11.75948 7.76159,-3.93538 14.70748,-9.30634 22.06122,-13.95952 5.86224,-6.64617 12.74887,-12.51336 17.5867,-19.9385 4.79399,-7.35787 7.82591,-15.75096 11.00128,-23.93861 3.41023,-8.79324 6.41231,-17.77209 8.72152,-26.9164 2.3046,-9.12606 3.61653,-18.47863 5.08973,-27.77518 2.37047,-14.95875 5.18099,-40.1905 6.95695,-55.32444 0.75242,-7.53874 1.40645,-15.08794 2.25726,-22.61621 1.87592,-16.59883 3.63085,-34.02967 11.52932,-49.10109 5.38157,-10.26883 9.10157,-12.79299 17.1965,-21.00143 4.0984,-2.46125 7.97251,-5.34195 12.29519,-7.38377 7.3982,-3.49453 21.35099,-7.52532 29.38426,-8.83168 4.37117,-0.71083 8.82128,-0.98064 13.24987,-0.97599 3.32863,0.004 7.22962,2.93868 9.93567,1.00036 1.81465,-1.29982 -3.17878,-3.13454 -4.76816,-4.7018 1.1054,1.4552 2.58452,2.69104 3.31619,4.3656 0.79646,1.82283 1.04855,3.86922 1.14991,5.85587 0.44689,8.75959 -3.66542,16.98478 -8.89035,23.76947 -2.44286,3.17211 -5.40698,5.90625 -8.11048,8.85937 -3.76659,2.99627 -7.26617,6.36299 -11.29977,8.98881 -10.19346,6.63583 -22.16891,11.5153 -33.60756,15.34431 -23.44069,7.8466 -47.77556,12.3008 -72.34423,14.67721 -7.97189,0.65638 -15.92526,1.60131 -23.91567,1.96912 -14.3565,0.66084 -30.60978,-0.0361 -44.82054,-2.80892 -5.74908,-1.12178 -9.47939,-2.77795 -14.85259,-4.81676 -8.66924,-3.88994 -9.21832,-4.42842 1.31273,1.70666 1.23419,0.719 -2.45434,-1.46209 -3.66938,-2.21299 -2.15507,-1.33186 -3.46404,-2.15019 -5.42504,-3.68036 -0.71778,-0.56009 -1.39437,-1.17107 -2.09155,-1.7566 -4.4907,-5.00476 -7.95598,-10.73397 -10.56442,-16.9433 -3.46519,-7.5045 -6.93223,-15.02379 -9.84852,-22.76163 0,0 -13.60148,-6.22832 -13.60148,-6.22832 z" />
    <path
       style="fill:#c87137"
       id="path558"
       d="m 420.77711,343.39572 c -5.81126,27.7351 -14.41897,54.77082 -23.01497,81.73909 -6.00616,19.57542 -13.28794,38.80818 -18.14769,58.71877 -4.35,16.99049 -10.8972,33.29124 -16.89206,49.74169 -3.32158,8.72188 -6.2282,17.59467 -9.44634,26.35365 -0.96609,2.62945 -3.0223,8.28149 -4.60258,10.92651 -0.58141,0.97314 -1.43906,1.75193 -2.15859,2.6279 0,0 12.685,7.55006 12.685,7.55006 v 0 c 0.72647,-1.00105 1.58354,-1.91926 2.17939,-3.00315 1.57951,-2.87318 3.40581,-8.3035 4.40832,-11.19096 3.06134,-8.81736 5.88126,-17.72092 9.26007,-26.42639 6.10968,-16.44888 12.77365,-32.73555 17.25842,-49.72918 4.76804,-19.96944 11.22001,-39.50152 17.18468,-59.1332 8.44987,-26.95095 17.02182,-53.86983 24.4059,-81.13735 0,0 -13.11955,-7.03744 -13.11955,-7.03744 z" />
    <path
       style="fill:#c87137"
       id="path571"
       d="m 427.19164,354.16661 c 12.1092,-5.47135 25.12773,-8.38569 38.11852,-10.87215 12.73074,-2.4367 26.9403,-4.59665 39.8947,-5.64468 5.41054,-0.43772 10.84716,-0.44872 16.27074,-0.67309 3.22893,0.98461 12.10263,0.59606 9.68678,2.95382 -3.08199,3.00787 -9.08195,-1.75762 -12.91796,0.19966 -4.7792,2.43853 -6.80698,8.35628 -10.82317,11.914 -6.38963,5.66022 -13.31241,10.7054 -20.27921,15.63785 -15.22516,10.77934 -34.10145,22.06055 -50.01868,31.85864 -6.92429,4.1258 -13.88254,8.19512 -20.77287,12.37739 -0.18566,0.1127 -17.6386,8.21793 -17.64074,14.54586 -6.6e-4,1.94008 1.97797,3.63447 3.72984,4.46805 21.87444,10.40843 29.37336,10.58261 52.37306,15.33536 20.70818,5.06382 40.55214,9.27569 60.59138,16.79626 9.10699,3.41779 17.97629,7.49911 26.60392,11.99162 8.43459,4.392 17.10273,12.52002 17.49907,23.10716 0.25982,6.94046 -4.41587,13.17004 -6.6238,19.75506 -5.10406,6.72883 -9.30296,14.25203 -15.31219,20.18649 -14.74493,14.56146 -32.62238,24.28395 -51.5509,32.17713 -8.80122,3.6701 -17.79491,7.16888 -27.15103,9.01115 -20.91228,4.11773 -18.03955,5.51279 -26.21457,-0.94547 -1.35529,-4.6246 -4.66872,-9.09257 -4.06586,-13.87381 2.30509,-18.28151 20.92085,-34.60154 32.72897,-45.03395 11.06964,-9.77997 23.01045,-18.55674 35.05513,-27.10722 26.93616,-19.12191 47.05052,-30.17689 75.21169,-46.72644 0,0 -9.14868,-5.92487 -9.14868,-5.92487 v 0 c -26.55219,15.95484 -49.47866,29.1737 -75.07128,46.96122 -12.25524,8.5177 -24.46387,17.16778 -35.89011,26.76899 -12.6363,10.61799 -32.18455,26.27444 -35.18512,45.20157 -0.80173,5.05718 2.50753,9.92892 3.7613,14.89338 8.47708,4.74394 16.02643,11.79965 25.43123,14.23184 13.98919,3.61776 39.16247,-6.05943 50.53569,-10.87772 19.01821,-8.0571 37.31576,-17.83794 52.34313,-32.33425 6.19015,-5.97139 10.59067,-13.55504 15.886,-20.33257 2.4438,-6.84996 7.49813,-13.27896 7.33139,-20.54989 -0.45019,-19.63103 -27.55453,-29.97488 -39.13539,-36.1707 -27.31333,-14.61278 -57.7317,-21.42761 -87.53999,-28.73316 -8.84577,-2.0012 -17.69154,-4.00239 -26.53731,-6.00359 -0.80975,1.22193 -0.97545,3.47793 -2.42924,3.66578 -7.63038,0.98597 -4.10931,-6.66646 -2.13528,-8.52393 4.0162,-3.77908 32.31516,-20.9148 33.59643,-21.71002 10.67194,-6.65286 40.2977,-24.99202 50.32888,-31.78823 7.21766,-4.89003 14.47911,-9.767 21.18471,-15.33851 4.39947,-3.6554 11.80167,-6.53278 12.01779,-12.2486 0.56468,-14.93422 -11.67902,-15.63105 -20.4115,-17.69394 -5.35,0.3135 -10.7137,0.44586 -16.05001,0.9405 -12.53999,1.16236 -27.70641,3.46753 -40.02804,5.69607 -13.44551,2.4318 -26.90181,5.19274 -39.63664,10.28028 0,0 12.38922,8.15166 12.38922,8.15166 z" />
    <text
       xml:space="preserve"
       id="text647"
       style="white-space:pre;shape-inside:url(#rect649);display:inline;fill:#c87137" />
    <path
       style="fill:url(#linearGradient6964);fill-opacity:1"
       d="m -931.97694,251.63378 c -2.20165,3.85289 -108.46196,79.61252 39.60901,97.85758 125.95577,15.52005 344.17127,34.0719 351.12826,25.72506 0,0 345.52452,23.20372 184.75849,-114.26287 -160.76602,-137.46661 -230.66429,-158.43609 -205.03493,-34.94914 25.62937,123.48695 74.87055,422.88454 74.87055,422.88454 11.58299,88.04377 9.18958,124.84201 4.17412,181.50195 -3.96004,44.73678 -15.94024,77.71475 -20.51473,89.26416 -10.92336,27.57872 -41.54704,99.77554 -186.67677,-23.79222 -214.8729,-182.9491 99.02255,-124.65192 99.02255,-124.65192 l 575.495765,50.09376 c 16.5814613,1.44333 6.663854,-27.28229 -4.564179,-28.30582 l -699.078416,-63.7269 c 0,0 -211.86143,-38.73926 -80.38301,149.11631 128.04573,182.95093 259.30247,135.13913 259.26676,135.10983 -0.74377,-0.6105 126.95774,-69.38322 76.24494,-385.57864 -59.91756,-373.58732 -75.44748,-421.90001 -75.02056,-429.48318 0,0 -21.59545,-60.74428 62.20588,-5.05107 82.28704,54.68684 86.73931,64.35265 86.20786,65.2384 6.77611,2.2587 107.17214,81.69865 -33.31223,87.91077 -131.83469,5.82964 -215.79418,4.82342 -229.37392,3.52461 -201.32787,-19.25572 -165.13768,-14.51421 -244.07631,-21.53711 1.15185,-1.40782 -89.74176,-12.48535 -11.64972,-75.72313 15.14996,-12.26821 37.62074,-50.15794 -23.29941,-1.16497 z"
       id="path1302"
       sodipodi:nodetypes="cscsscssscsscssscscsscsc" />
    <path
       style="fill:url(#linearGradient5479);fill-opacity:1.0"
       d="m -358.26175,461.82778 26.85045,544.68062 -44.49503,3.0686 -24.54899,-575.36683 c 0,0 157.1328,-19.99912 222.47518,-23.01467 65.12465,-3.0055 151.293248,67.50971 -15.94671,165.70564 -167.23997,98.19594 -96.92488,57.66831 -96.92488,57.66831 97.11102,26.59473 141.6244,51.33563 286.9933683,91.71835 83.6109207,28.3037 97.7562897,66.59348 104.3206417,86.58346 17.70444,53.91413 27.75567,89.53765 -125.011265,152.21071 C -319.7527,1086.1901 -292.63952,935.0267 -239.35261,863.81741 -218.96766,836.57624 -36.402722,609.00959 -41.535452,595.98035 L -6.1372462,592.24426 -212.63378,875.19312 c -5.49099,7.52396 -64.15228,129.56818 58.53516,94.86407 109.927049,-31.09466 161.0257287,-59.17068 203.568877,-83.03896 0,0 97.823653,-75.36741 -63.279061,-129.06832 -161.102706,-53.7009 -346.754416,-116.60767 -346.754416,-116.60767 65.73021,-37.94936 137.87995,-80.27689 188.72033,-122.74493 21.98178,-18.36185 43.81434,-90.35421 -39.03849,-76.54541 -82.85283,13.80881 -146.61322,19.77588 -146.61322,19.77588 z"
       id="path1317"
       sodipodi:nodetypes="ccccssccsssccsscscsscc" />
    <text
       xml:space="preserve"
       style="white-space:pre;inline-size:149.057;display:inline;fill:url(#linearGradient9248);fill-opacity:1"
       x="-867.93768"
       y="1364.832"
       id="text9180"><tspan
         x="-867.93768"
         y="1364.832"
         id="tspan11145">Luka by LB is licenced </tspan><tspan
         x="-867.93768"
         y="1379.832"
         id="tspan11147">under CC BY-NC-SA  </tspan></text>
  </g>
  <metadata
     id="metadata7331">
    <rdf:RDF>
      <cc:Work
         rdf:about="">
        <dc:title>Umetnost</dc:title>
      </cc:Work>
    </rdf:RDF>
  </metadata>
</svg>
